<?xml version="1.0" encoding="utf-8"?>
<!-- Generator: Adobe Illustrator 22.1.0, SVG Export Plug-In . SVG Version: 6.00 Build 0)  -->
<svg version="1.1" id="Layer_1" xmlns="http://www.w3.org/2000/svg" xmlns:xlink="http://www.w3.org/1999/xlink" x="0px" y="0px"
	 width="180px" height="80px" viewBox="0 0 180 80" style="enable-background:new 0 0 180 80;" xml:space="preserve">
<style type="text/css">
	.st0{fill:#231F20;}
</style>
<g>
	<path class="st0" d="M66.5,48.5H63V30.6h5.2l4.6,14.3l4.5-14.3h5.2v17.9h-3.6V35.2l-4.2,13.2h-3.9l-4.3-13.3V48.5z M90.2,48.5h-3.7
		V30.6h3.7V48.5z M97.8,48.5h-3.6V30.6h4.4l7.1,13v-13h3.5v17.9h-4.4l-7.1-12.9V48.5z M117,48.5h-3.7V30.6h3.7V48.5z M143.3,55.1
		h-17c0.9-2.1,1.6-4.3,2.2-6.6h21.4l5.6-5.6h-26.2c0.1-1.1,0.1-2.2,0.1-3.3c0-1.1-0.1-2.2-0.1-3.3h32.7l5.6-5.6h-39.3
		c-0.5-2.3-1.2-4.5-2.2-6.6h48l5.6-5.6h-56.6C116.3,7.3,104,0,90,0C76,0,63.7,7.3,56.6,18.4H0L5.6,24h48c-0.9,2.1-1.6,4.3-2.2,6.6
		H12.2l5.6,5.6h32.7c-0.1,1.1-0.1,2.2-0.1,3.3c0,1.1,0.1,2.2,0.1,3.3H24.5l5.6,5.6h21.4c0.5,2.3,1.2,4.5,2.2,6.6h-17l5.6,5.6h14.3
		c7,11,19.3,18.4,33.4,18.4c14,0,26.3-7.3,33.4-18.4h14.3L143.3,55.1z M90,73.4c-18.7,0-33.9-15.2-33.9-33.9
		C56.1,20.8,71.3,5.6,90,5.6c18.7,0,33.9,15.2,33.9,33.9C123.9,58.2,108.7,73.4,90,73.4"/>
</g>
</svg>
